<?xml version="1.0" encoding="UTF-8"?>
<svg version="1.1" xmlns="http://www.w3.org/2000/svg" width="1584" height="240">
<path d="M0 0 C1.61048632 1.40947825 3.21572253 2.82500988 4.8125 4.25 C5.84375 5.03375 6.875 5.8175 7.9375 6.625 C29.47860438 26.29296487 40.26142176 56.40768778 41.98095703 85.05664062 C43.37302403 120.35340212 34.60958226 153.2136268 10.31298828 179.68603516 C-11.00593253 201.90683026 -40.21454793 211.7776137 -70.58984375 212.55078125 C-73.10149076 212.57016226 -75.61330359 212.5737907 -78.125 212.5625 C-78.78213989 212.56034485 -79.43927979 212.5581897 -80.11633301 212.55596924 C-89.85784312 212.50478533 -98.821812 212.10088586 -108.1875 209.25 C-108.94015137 209.02473633 -109.69280273 208.79947266 -110.46826172 208.56738281 C-126.68144377 203.65429734 -126.68144377 203.65429734 -130.1875 200.25 C-130.1875 199.59 -130.1875 198.93 -130.1875 198.25 C-128.39013672 196.8046875 -128.39013672 196.8046875 -125.8671875 195.125 C-124.94574951 194.50560547 -124.02431152 193.88621094 -123.07495117 193.24804688 C-121.58378784 192.25901367 -121.58378784 192.25901367 -120.0625 191.25 C-118.03440106 189.88653931 -116.00705689 188.52195526 -113.98046875 187.15625 C-112.98708496 186.48851562 -111.99370117 185.82078125 -110.97021484 185.1328125 C-107.40351068 182.71954504 -103.87858926 180.25370307 -100.375 177.75 C-99.81449951 177.35627197 -99.25399902 176.96254395 -98.67651367 176.55688477 C-96.28710372 174.85925074 -94.06834729 173.13726003 -91.9375 171.12109375 C-86.61973407 166.13568819 -81.94931787 165.65449813 -74.91015625 165.52026367 C-58.34333596 165.16789348 -42.59098671 158.77353003 -29.1875 149.25 C-28.12402344 148.50169922 -28.12402344 148.50169922 -27.0390625 147.73828125 C-15.71694283 138.85511621 -8.9803545 124.28032006 -7.1875 110.25 C-5.5404862 82.7522782 -11.39897428 62.42998711 -29.71484375 41.33984375 C-41.92828321 28.30141425 -58.84285055 19.85360851 -76.7734375 18.9921875 C-98.83157672 18.30731016 -112.29094193 26.02626553 -128.9453125 39.7890625 C-133.11294425 43.21749305 -137.38356769 46.49530219 -141.6875 49.75 C-147.298992 53.99973411 -152.81093188 58.34428921 -158.25 62.8125 C-164.81270845 68.19801201 -171.53280619 73.330881 -178.3515625 78.38671875 C-180.87002613 80.25621807 -183.36378354 82.15171005 -185.8359375 84.08203125 C-186.4131958 84.53231689 -186.9904541 84.98260254 -187.58520508 85.4465332 C-189.13366003 86.65891053 -190.67831576 87.87613595 -192.22265625 89.09375 C-195.44122009 91.4345237 -198.70207055 93.33540704 -202.1875 95.25 C-209.14411945 87.79926553 -215.82440763 80.22121935 -222.1875 72.25 C-222.95835937 71.28964844 -223.72921875 70.32929687 -224.5234375 69.33984375 C-226.41549902 66.97974596 -228.30350784 64.61654056 -230.1875 62.25 C-228.70691026 58.44513251 -226.81495374 57.106295 -223.375 55 C-217.33338632 51.11247908 -211.63444867 46.87540427 -205.9375 42.5 C-204.56887817 41.4495752 -204.56887817 41.4495752 -203.17260742 40.37792969 C-201.35499598 38.98217445 -199.53768887 37.58602279 -197.72070312 36.18945312 C-193.59935575 33.03409619 -189.44014131 29.93018505 -185.27954102 26.8269043 C-181.56392179 24.04938926 -177.87231697 21.24372907 -174.19921875 18.41015625 C-132.95399835 -13.37389071 -132.95399835 -13.37389071 -108.1875 -20.75 C-107.07890625 -21.09160156 -105.9703125 -21.43320312 -104.828125 -21.78515625 C-71.16320168 -30.28041272 -27.23676838 -22.1206727 0 0 Z " fill="#FE9605" transform="translate(317.1875,26.75)"/>
<path d="M0 0 C11.68650634 -0.35820709 23.18899327 1.64499618 34.3515625 4.9375 C35.16343018 5.17355957 35.97529785 5.40961914 36.81176758 5.65283203 C42.5974594 7.45319378 47.66333939 10.00943173 52.8515625 13.125 C44.48205198 21.78522478 34.43590151 28.57509959 24.43310547 35.20922852 C20.85778769 37.61014355 18.00122207 39.91594279 15.1640625 43.1875 C9.98399384 48.05607233 1.82356476 47.24057711 -4.875 47.6875 C-21.48215461 48.87330183 -36.46501807 56.52069823 -47.81884766 68.59082031 C-63.04332685 86.15795716 -64.23938237 108.00370027 -63.1484375 130.125 C-61.30848332 148.54275916 -49.08948162 167.43251138 -35.1484375 179.125 C-19.43603572 190.345292 -3.20801379 194.39541999 15.86328125 191.69921875 C18.33016098 191.03458834 20.52844003 190.1876637 22.8515625 189.125 C23.75777344 188.73054687 24.66398438 188.33609375 25.59765625 187.9296875 C35.12524167 183.29333383 43.19380992 176.71840772 51.51953125 170.2421875 C56.21964004 166.58907835 61.00363248 163.07842411 65.8515625 159.625 C72.44715128 154.9122897 78.91966314 150.05860243 85.3515625 145.125 C94.10744359 138.41239898 102.97105206 131.87354863 111.95849609 125.47460938 C113.68394721 124.24449669 115.403361 123.00647858 117.12109375 121.765625 C118.02214844 121.12109375 118.92320312 120.4765625 119.8515625 119.8125 C120.9653125 119.01392578 120.9653125 119.01392578 122.1015625 118.19921875 C123.8515625 117.125 123.8515625 117.125 125.8515625 117.125 C127.1842813 118.59190559 128.44070119 120.12822501 129.6640625 121.6875 C134.08422355 127.2198769 138.67156716 132.5785672 143.33325195 137.90844727 C144.3744708 139.10152045 145.41157093 140.29820493 146.44384766 141.49902344 C147.70759076 142.9587059 149.00234075 144.39140669 150.30078125 145.8203125 C151.8515625 148.125 151.8515625 148.125 151.66577148 150.06225586 C150.65993573 152.61047364 149.47312809 153.68201512 147.375 155.43359375 C146.65022461 156.03929199 145.92544922 156.64499023 145.17871094 157.26904297 C141.34109611 160.32963339 137.42703223 163.27459818 133.4765625 166.1875 C126.85137554 171.11087156 120.28284303 176.09209157 113.7890625 181.1875 C106.82662298 186.64229735 99.75423863 191.92821717 92.61401367 197.14770508 C88.58756538 200.09454709 84.59559891 203.07115198 80.66772461 206.14819336 C51.79476612 228.76496911 21.58668944 239.5614112 -15.4765625 235.625 C-37.89948876 232.79046038 -57.59531999 225.54174966 -75.1484375 211.125 C-75.86257812 210.57457031 -76.57671875 210.02414063 -77.3125 209.45703125 C-99.9208788 191.21720373 -108.10465714 159.98926114 -111.61328125 132.48046875 C-114.60923592 100.50993876 -107.06235934 66.91632973 -86.8359375 41.5 C-66.56957213 17.71350708 -39.13102843 3.32932486 -7.8359375 0.4375 C-5.22444227 0.27299636 -2.61210923 0.15197726 0 0 Z " fill="#041158" transform="translate(112.1484375,2.875)"/>
<path d="M0 0 C16.005 -0.061875 32.01 -0.12375 48.5 -0.1875 C53.52283203 -0.21481201 58.54566406 -0.24212402 63.72070312 -0.27026367 C69.93261719 -0.28381348 69.93261719 -0.28381348 72.85583496 -0.28633118 C74.86431889 -0.29088829 76.87279547 -0.30133426 78.88122559 -0.31672668 C116.04607172 -0.58690643 116.04607172 -0.58690643 129.41015625 11.109375 C136.3400084 18.40395622 138.98442065 25.98247736 139 36 C138.27071424 43.99562388 134.85595194 50.53238678 129.0625 56.0625 C123.72179668 60.38990024 117.18624942 63.09992746 111 66 C111.92619141 66.65742188 111.92619141 66.65742188 112.87109375 67.328125 C127.75921904 78.47722339 135.30773998 94.98647545 144 111 C153.06262862 94.14218269 161.57405293 77.00597933 170.12304688 59.88427734 C172.20876303 55.70713772 174.29808066 51.53181166 176.38846779 47.35700798 C178.02700202 44.08359386 179.66358966 40.80920937 181.29963303 37.53454971 C182.06835031 35.99645986 182.83763539 34.45865362 183.60756302 32.92116928 C188.02902143 24.08889617 192.35649885 15.22372746 196.50164223 6.25779533 C198.8965466 1.1034534 198.8965466 1.1034534 200 0 C201.38160115 -0.0927833 202.76788038 -0.11747043 204.15258789 -0.11352539 C205.03342545 -0.11344986 205.914263 -0.11337433 206.8217926 -0.11329651 C207.77907761 -0.10813522 208.73636261 -0.10297394 209.72265625 -0.09765625 C211.18547279 -0.09553383 211.18547279 -0.09553383 212.67784119 -0.09336853 C215.80609143 -0.08775133 218.93427123 -0.07519593 222.0625 -0.0625 C224.17773334 -0.05748722 226.29296781 -0.05292393 228.40820312 -0.04882812 C233.60549296 -0.03777631 238.80274145 -0.02102146 244 0 C244.43231934 0.86987549 244.86463867 1.73975098 245.31005859 2.63598633 C246.96669508 5.96782211 248.62628422 9.29818072 250.28662109 12.62817383 C250.99506784 14.0499937 251.70278825 15.47217579 252.40966797 16.89477539 C256.8815202 25.8928586 261.46073336 34.82499393 266.15907288 43.70695496 C270.96475359 52.80136928 275.63725876 61.96305009 280.3125 71.125 C287.71975839 85.64898361 287.71975839 85.64898361 295.25 100.109375 C295.86190186 101.2732373 296.47380371 102.43709961 297.10424805 103.63623047 C298.21230722 105.73706125 299.32545157 107.83522078 300.44458008 109.93017578 C300.92306396 110.83751465 301.40154785 111.74485352 301.89453125 112.6796875 C302.30550049 113.45038574 302.71646973 114.22108398 303.13989258 115.01513672 C304 117 304 117 304 120 C290.8 120 277.6 120 264 120 C256.6857835 104.96142401 249.38036748 89.93443746 242.375 74.75 C237.92606015 65.11040034 233.4104694 55.50667472 228.8125 45.9375 C228.25933105 44.78282227 227.70616211 43.62814453 227.13623047 42.43847656 C226.62334473 41.37467773 226.11045898 40.31087891 225.58203125 39.21484375 C225.13061768 38.27761475 224.6792041 37.34038574 224.21411133 36.37475586 C222.97302564 33.83481012 222.97302564 33.83481012 221 31 C220.61481201 31.8758374 220.22962402 32.7516748 219.83276367 33.65405273 C211.6772738 52.1788213 203.38551394 70.6353832 194.875 89 C194.27430191 90.2983931 194.27430191 90.2983931 193.66146851 91.62301636 C192.50322032 94.12477412 191.34206217 96.62515719 190.1796875 99.125 C189.84579514 99.84571182 189.51190277 100.56642365 189.16789246 101.30897522 C186.23025726 107.60676092 183.11191771 113.77616458 180 120 C155.91 120 131.82 120 107 120 C105.34685128 115.5916034 103.7482087 111.25765693 102.25 106.8125 C98.14863341 95.60001872 92.9487091 84.6030321 82.125 78.6875 C68.32801841 72.56132601 51.76981784 73.93442113 37 74 C37.00523682 75.00264893 37.01047363 76.00529785 37.01586914 77.03833008 C37.03416301 80.80866581 37.04551984 84.57899774 37.05493164 88.34936523 C37.05991672 89.97176781 37.0667072 91.594166 37.07543945 93.21655273 C37.08776356 95.56755669 37.09328662 97.91850055 37.09765625 100.26953125 C37.10281754 100.97833939 37.10797882 101.68714752 37.11329651 102.41743469 C37.11394045 108.38444632 36.54737151 113.97891343 36 120 C24.12 120 12.24 120 0 120 C0 80.4 0 40.8 0 0 Z M37 20 C37 30.89 37 41.78 37 53 C42.79854325 53.04614225 48.59643835 53.08589824 54.39501953 53.10986328 C56.3637916 53.1198636 58.33254905 53.13346823 60.30126953 53.15087891 C63.14619581 53.1753917 65.99092415 53.18654306 68.8359375 53.1953125 C69.70302338 53.20563507 70.57010925 53.21595764 71.46347046 53.22659302 C81.09440657 53.22832476 90.67049223 52.23329649 97.8125 45.25 C100.31194649 41.53653665 101 39.46312237 101 35 C99.32651974 29.29047913 96.91804237 26.31022083 92 23 C83.89123912 19.94009024 75.16236221 19.84749153 66.58984375 19.90234375 C65.31047691 19.90446617 65.31047691 19.90446617 64.00526428 19.90663147 C61.31597184 19.91217061 58.62676672 19.9247112 55.9375 19.9375 C54.09961059 19.94252288 52.26171985 19.9470844 50.42382812 19.95117188 C45.94915911 19.9612636 41.47467579 19.98085017 37 20 Z " fill="#061359" transform="translate(831,2)"/>
<path d="M0 0 C17.82 0 35.64 0 54 0 C55.711875 4.00125 57.42375 8.0025 59.1875 12.125 C63.37464293 21.90118188 67.57861228 31.66986037 71.8081665 41.42776489 C72.62375109 43.30961831 73.43860423 45.19178732 74.25341797 47.07397461 C76.83090858 53.02394335 79.42237467 58.96730472 82.04296875 64.8984375 C82.51202637 65.96408936 82.98108398 67.02974121 83.46435547 68.12768555 C84.3402196 70.11558941 85.22050802 72.10155193 86.10595703 74.08520508 C86.48993652 74.95814209 86.87391602 75.8310791 87.26953125 76.73046875 C87.60573486 77.48739014 87.94193848 78.24431152 88.28833008 79.02416992 C89 81 89 81 89 84 C89.66 84 90.32 84 91 84 C91.57971558 82.15801025 91.57971558 82.15801025 92.17114258 80.27880859 C94.19433655 74.21904263 96.7250933 68.39832265 99.26171875 62.5390625 C100.04087917 60.7265583 100.82003907 58.91405388 101.59917164 57.1015377 C102.68560045 54.57673394 103.77541903 52.05339908 104.86517334 49.5300293 C106.75236662 45.15809456 108.63375673 40.78365883 110.51582336 36.40951538 C111.51318007 34.09246349 112.51160371 31.77587038 113.51139832 29.45986938 C117.73457858 19.66398702 121.85983773 9.83288538 126 0 C143.82 0 161.64 0 180 0 C180 39.6 180 79.2 180 120 C168.78 120 157.56 120 146 120 C145.93941406 114.65554687 145.87882813 109.31109375 145.81640625 103.8046875 C145.7758999 100.41405468 145.73512053 97.02342953 145.69335938 93.6328125 C145.62713538 88.25393328 145.56190931 82.87505519 145.50268555 77.49609375 C145.4548621 73.15831152 145.40251359 68.82060512 145.34705925 64.48291397 C145.32671692 62.82998677 145.30799083 61.17703884 145.29092598 59.52407455 C145.26670123 57.20461308 145.23667271 54.88529259 145.20532227 52.56591797 C145.18977798 51.24687469 145.1742337 49.92783142 145.15821838 48.56881714 C145.01297617 45.29269412 144.62002709 42.21632618 144 39 C143.6095752 39.90613037 143.21915039 40.81226074 142.81689453 41.74584961 C140.92129988 46.14380204 139.02353152 50.54081465 137.125 54.9375 C136.77484833 55.7484613 136.42469666 56.55942261 136.06393433 57.3949585 C129.33595042 72.96995836 122.52514924 88.50796056 115.67822266 104.03100586 C115.30556778 104.87717972 114.9329129 105.72335358 114.54896545 106.59516907 C113.85010935 108.18200847 113.15016987 109.76837134 112.44895935 111.35417175 C111.19009517 114.21415323 109.98878408 117.03364776 109 120 C96.79 120 84.58 120 72 120 C70.288125 116.143125 68.57625 112.28625 66.8125 108.3125 C61.89655308 97.24312492 56.95451229 86.18579887 51.98168945 75.1418457 C46.58182004 63.12547238 41.30633156 51.05984444 36 39 C35.67 65.73 35.34 92.46 35 120 C23.45 120 11.9 120 0 120 C0 80.4 0 40.8 0 0 Z " fill="#051258" transform="translate(544,2)"/>
<path d="M0 0 C41.25 0 82.5 0 125 0 C125 7.26 125 14.52 125 22 C96.3308544 22.60107531 67.67629221 23.18824699 39 23 C39 30.59 39 38.18 39 46 C65.73 46 92.46 46 120 46 C120 53.92 120 61.84 120 70 C92.94 70 65.88 70 38 70 C38 78.91 38 87.82 38 97 C41.74005371 96.99214478 41.74005371 96.99214478 45.55566406 96.98413086 C53.78987834 96.9675678 62.02409334 96.95651786 70.25831985 96.94818783 C75.251161 96.94296723 80.24398508 96.93588447 85.23681641 96.92456055 C90.0543408 96.91370249 94.87184878 96.90771695 99.68938446 96.90512276 C101.52819833 96.90327379 103.36701129 96.89966327 105.20581818 96.89426994 C107.77948454 96.88702083 110.3530829 96.8860107 112.92675781 96.88647461 C114.0693531 96.8810817 114.0693531 96.8810817 115.23503113 96.87557983 C118.73843743 96.88242198 121.57049088 97.14262272 125 98 C125 105.26 125 112.52 125 120 C83.75 120 42.5 120 0 120 C0 80.4 0 40.8 0 0 Z " fill="#071359" transform="translate(1294,2)"/>
<path d="M0 0 C0.62132812 0.50015625 1.24265625 1.0003125 1.8828125 1.515625 C7.83669423 6.82514724 12.72021626 15.04705821 14 23 C11.22367908 25.77632092 1.93517904 24.45856091 -1.96191406 24.51489258 C-3.64003552 24.54636946 -5.31794012 24.59395308 -6.99511719 24.65844727 C-22.70845685 25.25430955 -22.70845685 25.25430955 -28.33984375 20.14453125 C-29.25431274 19.08842651 -29.25431274 19.08842651 -30.18725586 18.01098633 C-35.82197259 11.76005546 -45.29312956 9.30192983 -53.41015625 8.78125 C-63.47297096 8.53556582 -73.47743978 9.15553596 -82 15 C-84.17118161 18.75022278 -83.94915817 20.88698127 -83 25 C-75.55265429 27.13066744 -68.10149778 28.89284637 -60.5 30.375 C-59.43048096 30.58777588 -58.36096191 30.80055176 -57.2590332 31.01977539 C-51.54059656 32.14802655 -45.8159234 33.21941664 -40.07421875 34.22265625 C-29.48170221 36.08153098 -19.01106886 38.01035643 -8.6875 41.0625 C-7.48806763 41.41235962 -7.48806763 41.41235962 -6.2644043 41.76928711 C-0.13043215 43.68453299 5.0093675 46.41206196 9.25 51.375 C9.72953125 51.91898437 10.2090625 52.46296875 10.703125 53.0234375 C13.94634417 57.96641612 14.35892388 63.10341982 14.3125 68.875 C14.30831055 69.58317871 14.30412109 70.29135742 14.29980469 71.02099609 C14.09843596 80.3203752 10.78487818 87.53930339 4.0625 94.0625 C-15.28884041 109.49509297 -52.63077558 107.64058085 -75.97753906 105.23876953 C-90.3567125 103.54118001 -107.42935418 101.09501023 -117.8515625 90.03515625 C-123.02300599 82.99129357 -125.10365015 74.65933382 -125 66 C-120.1623239 65.7512271 -115.32842536 65.57066837 -110.48583984 65.45068359 C-108.84227621 65.40064384 -107.19915227 65.33258052 -105.55712891 65.24560547 C-91.87502921 64.53948618 -91.87502921 64.53948618 -87.265625 68.12988281 C-85.1875 70.7890625 -85.1875 70.7890625 -83.60546875 73.44384766 C-79.91516848 79.31937135 -75.10900346 80.83047241 -68.703125 82.40625 C-55.47990632 85.31077202 -39.85292665 84.68574912 -28 77.3125 C-25.92650873 75.73986475 -25.92650873 75.73986475 -24 74 C-23.53831947 69.93119919 -23.53831947 69.93119919 -25.23420715 66.40129089 C-31.08459024 61.75856705 -40.79252997 61.11507214 -47.95703125 59.73046875 C-50.06189021 59.31205645 -52.16670652 58.89342951 -54.27148438 58.47460938 C-57.52370197 57.83321398 -60.77640712 57.19453563 -64.0300293 56.56030273 C-75.30752147 54.35479242 -86.50723773 52.03874589 -97.57421875 48.92578125 C-98.41161087 48.69328171 -99.24900299 48.46078217 -100.11177063 48.22123718 C-109.34999094 45.52345801 -116.52065529 42.1755302 -122 34 C-125.30473311 27.39053378 -126.09090226 20.66906166 -124.4140625 13.4921875 C-121.39366693 4.43100078 -115.22547801 -0.51184588 -106.92358398 -4.8425293 C-78.32318253 -18.78817959 -25.66064191 -21.5080899 0 0 Z " fill="#061359" transform="translate(1570,16)"/>
<path d="M0 0 C41.25 0 82.5 0 125 0 C125 7.26 125 14.52 125 22 C66.9787234 23.19148936 66.9787234 23.19148936 38 23 C38 30.59 38 38.18 38 46 C64.73 46 91.46 46 119 46 C119 53.92 119 61.84 119 70 C92.27 70 65.54 70 38 70 C38 78.91 38 87.82 38 97 C40.45783936 96.99476318 42.91567871 96.98952637 45.44799805 96.98413086 C53.57044639 96.967558 61.69289548 96.95651394 69.81535625 96.94818783 C74.73978762 96.94297018 79.66420166 96.93589279 84.58862305 96.92456055 C89.34131351 96.91369199 94.0939873 96.90771473 98.84668922 96.90512276 C100.65955683 96.90327567 102.47242353 96.89966881 104.28528404 96.89426994 C106.82521915 96.88700689 109.36508547 96.88601129 111.9050293 96.88647461 C112.65381348 96.88287933 113.40259766 96.87928406 114.17407227 96.87557983 C118.00468962 96.8831366 121.19889172 97.23977834 125 98 C125 105.26 125 112.52 125 120 C83.75 120 42.5 120 0 120 C0 80.4 0 40.8 0 0 Z " fill="#071359" transform="translate(389,2)"/>
<path d="M0 0 C44.22 0 88.44 0 134 0 C134 7.92 134 15.84 134 24 C118.49 24 102.98 24 87 24 C87 55.68 87 87.36 87 120 C74.46 120 61.92 120 49 120 C48.67 88.65 48.34 57.3 48 25 C32.16 24.67 16.32 24.34 0 24 C0 16.08 0 8.16 0 0 Z " fill="#061259" transform="translate(1138,2)"/>
<path d="M0 0 C4.00437184 1.5366664 5.78488718 3.97865669 8.3125 7.375 C8.7254834 7.92647705 9.1384668 8.4779541 9.56396484 9.04614258 C10.50315002 10.30115544 11.43912904 11.55857154 12.37255859 12.81787109 C14.22724263 15.30469467 16.10678375 17.77168663 17.98828125 20.23828125 C19.36753906 22.05442056 20.7464461 23.87082632 22.125 25.6875 C23.13880737 27.01563721 23.13880737 27.01563721 24.1730957 28.37060547 C25.11221802 29.61608154 25.11221802 29.61608154 26.0703125 30.88671875 C26.91746826 32.00373169 26.91746826 32.00373169 27.78173828 33.14331055 C29 35 29 35 29 37 C26.74486729 38.83114318 24.47650869 40.54974557 22.125 42.25 C20.6473077 43.33700747 19.17078833 44.42561085 17.6953125 45.515625 C16.53563965 46.37124023 16.53563965 46.37124023 15.35253906 47.24414062 C11.5218446 50.10324758 7.76233671 53.05186987 4 56 C-1.62204581 60.39526471 -7.27744343 64.73641382 -13 69 C-20.30905931 74.4473264 -27.50629889 80.03124046 -34.69140625 85.640625 C-40.4364296 90.12567341 -46.21622233 94.56508921 -52 99 C-56.0232742 96.04001969 -59.01171112 92.70797634 -62 88.75 C-65.13582533 84.65057313 -68.3049644 80.60380525 -71.640625 76.6640625 C-72.24132812 75.94895508 -72.84203125 75.23384766 -73.4609375 74.49707031 C-74.63867744 73.10011131 -75.82598725 71.71115567 -77.0234375 70.33105469 C-77.55710937 69.69329102 -78.09078125 69.05552734 -78.640625 68.3984375 C-79.36040527 67.55804932 -79.36040527 67.55804932 -80.09472656 66.70068359 C-81 65 -81 65 -80.83276367 62.9453125 C-79.36011564 59.50524815 -76.03392976 57.72712664 -73.0625 55.625 C-71.5977396 54.55896423 -70.13424562 53.49118668 -68.671875 52.421875 C-67.90552734 51.86435547 -67.13917969 51.30683594 -66.34960938 50.73242188 C-62.44605955 47.85424341 -58.63096041 44.86461885 -54.8125 41.875 C-53.28921038 40.68600843 -51.76577563 39.49720278 -50.2421875 38.30859375 C-49.51870117 37.74382324 -48.79521484 37.17905273 -48.04980469 36.59716797 C-39.52166999 29.95221118 -30.91868249 23.40327043 -22.32739258 16.84033203 C-18.92418082 14.2398558 -15.52383552 11.63588846 -12.1328125 9.01953125 C-11.53791016 8.560625 -10.94300781 8.10171875 -10.33007812 7.62890625 C-8.73239232 6.39541229 -7.1356917 5.16064257 -5.5390625 3.92578125 C-3.73596405 2.55820043 -1.88297988 1.25531992 0 0 Z " fill="#051258" transform="translate(203,70)"/>
<path d="M0 0 C11.22 0 22.44 0 34 0 C34 39.6 34 79.2 34 120 C22.78 120 11.56 120 0 120 C0 80.4 0 40.8 0 0 Z " fill="#071359" transform="translate(760,2)"/>
<path d="M0 0 C5.38650056 4.47353437 7.08262249 8.63114568 8.61328125 15.33984375 C5.57010739 15.4754307 2.53302563 15.57421614 -0.51171875 15.65234375 C-1.795625 15.71518555 -1.795625 15.71518555 -3.10546875 15.77929688 C-7.43285326 15.86251581 -10.34044922 15.86800821 -13.69140625 12.9453125 C-14.58085938 12.08550781 -15.4703125 11.22570312 -16.38671875 10.33984375 C-22.81644769 6.96116453 -31.22257751 7.24089064 -38.125 9.0625 C-43.78557211 11.41235094 -47.96689217 14.50019059 -50.76171875 20.08984375 C-51.78300108 25.40051187 -51.23178983 30.10289088 -49.32421875 35.15234375 C-45.32501421 39.66757468 -39.03712646 42.14805861 -33.09375 42.578125 C-25.55163194 42.72185644 -19.821274 42.71534132 -13.38671875 38.33984375 C-12.89171875 37.34984375 -12.89171875 37.34984375 -12.38671875 36.33984375 C-19.31671875 35.84484375 -19.31671875 35.84484375 -26.38671875 35.33984375 C-26.38671875 31.04984375 -26.38671875 26.75984375 -26.38671875 22.33984375 C-14.50671875 22.33984375 -2.62671875 22.33984375 9.61328125 22.33984375 C9.61328125 33.55984375 9.61328125 44.77984375 9.61328125 56.33984375 C4.66328125 56.33984375 -0.28671875 56.33984375 -5.38671875 56.33984375 C-5.38671875 55.01984375 -5.38671875 53.69984375 -5.38671875 52.33984375 C-6.2065625 52.68917969 -7.02640625 53.03851563 -7.87109375 53.3984375 C-8.94875 53.85347656 -10.02640625 54.30851562 -11.13671875 54.77734375 C-12.2040625 55.22980469 -13.27140625 55.68226563 -14.37109375 56.1484375 C-26.12376284 60.79165521 -39.60958609 59.21714815 -51.171875 54.82421875 C-55.4905252 52.83018828 -58.97031829 50.6423642 -62.38671875 47.33984375 C-62.94875 46.81648438 -63.51078125 46.293125 -64.08984375 45.75390625 C-69.63351423 40.02185862 -71.4692587 33.12502185 -71.76171875 25.27734375 C-71.44866344 16.21296952 -67.94588596 8.50392342 -61.32421875 2.27734375 C-45.08097089 -10.97464219 -17.1792862 -12.10275195 0 0 Z " fill="#111D5F" transform="translate(751.38671875,178.66015625)"/>
<path d="M0 0 C11.68651856 -0.30686701 22.92444719 1.55277088 32.8203125 8.15625 C36.56700489 12.3598561 37.14036808 15.67784067 37.8203125 21.15625 C18.61687685 22.04347239 18.61687685 22.04347239 10.953125 17.34375 C6.25516766 14.72803749 1.4691862 14.8323641 -3.6796875 15.84375 C-6.3603557 16.876542 -6.3603557 16.876542 -6.8359375 19.23828125 C-6.949375 19.87121094 -7.0628125 20.50414062 -7.1796875 21.15625 C-6.07753906 21.39859375 -4.97539063 21.6409375 -3.83984375 21.890625 C0.20342818 22.78174381 4.24375935 23.6856726 8.28369141 24.59179688 C10.69366327 25.1280678 13.10621425 25.65090498 15.51953125 26.171875 C34.86203162 30.42133183 34.86203162 30.42133183 39.8203125 38.15625 C41.5624613 43.38269641 41.82378397 48.87725004 39.3203125 53.90625 C34.49250349 61.22419207 25.40039784 63.93877683 17.2421875 65.71875 C2.45792152 67.60897579 -15.61299434 68.2470493 -28.1796875 59.15625 C-31.97107989 54.85933863 -31.87047753 49.64739255 -32.1796875 44.15625 C-15.87872953 43.06412626 -15.87872953 43.06412626 -8.1953125 48.74609375 C-3.2888617 52.17870759 3.06915903 51.65418536 8.8203125 51.15625 C12.3767118 49.84421267 12.3767118 49.84421267 14.8203125 48.15625 C14.3253125 46.17625 14.3253125 46.17625 13.8203125 44.15625 C12.88574219 43.92550781 11.95117188 43.69476563 10.98828125 43.45703125 C8.19464608 42.7654696 5.40351942 42.06451012 2.61328125 41.359375 C-0.64990202 40.5349634 -3.91840552 39.73757893 -7.19140625 38.953125 C-8.85429808 38.54219807 -10.51706122 38.13075001 -12.1796875 37.71875 C-12.95546143 37.53803955 -13.73123535 37.3573291 -14.53051758 37.17114258 C-20.89550555 35.56605866 -26.22681844 32.82335754 -31.1171875 28.40625 C-33.35911833 23.65863176 -33.74648216 18.96290796 -32.1796875 13.96875 C-25.9218325 5.1686414 -17.67844362 2.41407376 -7.3046875 0.40625 C-4.87245413 0.20440491 -2.43791303 0.11979917 0 0 Z " fill="#101C5E" transform="translate(1537.1796875,170.84375)"/>
<path d="M0 0 C4.9043393 4.31280715 6.31571605 7.41671652 7 14 C3.81281557 14.117292 0.62619432 14.18760766 -2.5625 14.25 C-3.45775391 14.28351563 -4.35300781 14.31703125 -5.27539062 14.3515625 C-11.49485915 14.44269024 -14.84781021 13.47641377 -20 10 C-25.53931959 7.88498707 -29.29914267 7.85982853 -35 9 C-35.99 9.66 -36.98 10.32 -38 11 C-37.67 11.99 -37.34 12.98 -37 14 C-34.55219083 14.79670621 -32.25568611 15.38541239 -29.74609375 15.90234375 C-29.01181656 16.06618057 -28.27753937 16.2300174 -27.52101135 16.39881897 C-25.1623913 16.92422885 -22.80056491 17.43248531 -20.4375 17.9375 C-18.0996528 18.43976148 -15.76307767 18.94608883 -13.42897034 19.46546936 C-11.97639738 19.78852329 -10.52165577 20.10203788 -9.06455994 20.40403748 C-2.77159787 21.80028361 3.04019702 23.83919159 7.4375 28.6875 C10.07736445 34.28401264 10.66148136 38.79506215 8.875 44.75 C5.02534508 51.4227352 0.20015301 54.67442167 -7 57 C-14.14016201 58.83087373 -21.02173711 59.35483418 -28.375 59.3125 C-29.89009155 59.30512817 -29.89009155 59.30512817 -31.43579102 59.29760742 C-41.53690401 59.1388489 -52.22915009 58.20605129 -60 51 C-62.87385332 46.15037253 -63.1056826 42.53512604 -63 37 C-46.47519891 36.09755334 -46.47519891 36.09755334 -39 42 C-31.53930808 45.40596805 -23.56750082 44.6321742 -16 42 C-16.33 40.35 -16.66 38.7 -17 37 C-18.55786615 36.61053346 -20.11577143 36.22122306 -21.67382812 35.83251953 C-23.07938961 35.48046803 -24.48432313 35.12590145 -25.88867188 34.76904297 C-29.99246714 33.73063684 -34.10101055 32.74622882 -38.234375 31.83203125 C-39.54776855 31.53075317 -39.54776855 31.53075317 -40.88769531 31.22338867 C-42.58666241 30.83421406 -44.28911169 30.45984248 -45.99511719 30.1027832 C-53.04077209 28.45551536 -58.32365461 25.17816015 -63 19.625 C-64.37298002 16.02092746 -64.65998141 12.76708489 -64 9 C-60.80894163 2.74061628 -55.67725828 -1.83805261 -49.08984375 -4.375 C-33.98862326 -8.89125286 -13.4157387 -9.54346867 0 0 Z " fill="#101C5E" transform="translate(1004,178)"/>
<path d="M0 0 C4.11585474 3.11513712 6.51476846 6.58308236 7.9921875 11.5078125 C8.02159469 13.17421971 8.02551417 14.84147907 7.9921875 16.5078125 C4.96915455 16.6708932 1.95502044 16.78917655 -1.0703125 16.8828125 C-1.91787109 16.93308594 -2.76542969 16.98335937 -3.63867188 17.03515625 C-8.41304295 17.14575944 -11.18141793 16.85120519 -14.81640625 13.609375 C-15.36981689 13.06571289 -15.92322754 12.52205078 -16.4934082 11.96191406 C-21.21709379 7.426323 -27.490483 8.08776864 -33.6171875 8.203125 C-38.39249164 8.63224219 -40.3789153 9.35224972 -44.0078125 12.5078125 C-47.15298221 16.77693175 -48.70454999 21.17639106 -48.390625 26.4921875 C-47.41955576 31.60516434 -45.1739831 35.31174009 -41.5703125 39.0078125 C-35.26013702 41.66472849 -28.49749411 41.79687695 -22.046875 39.4140625 C-19.63662008 38.19833274 -17.33272585 36.87672866 -15.0078125 35.5078125 C-14.0178125 35.1778125 -13.0278125 34.8478125 -12.0078125 34.5078125 C-11.6778125 33.5178125 -11.3478125 32.5278125 -11.0078125 31.5078125 C-4.7378125 31.5078125 1.5321875 31.5078125 7.9921875 31.5078125 C7.02762977 39.22427436 6.21197874 43.97256517 0.234375 48.98046875 C-13.08238577 57.79540958 -28.30798964 59.493672 -43.828125 56.859375 C-54.22239804 53.9289414 -63.18404053 49.09347918 -68.88671875 39.71875 C-72.92785237 31.7491276 -73.23156102 23.30125488 -71.390625 14.5859375 C-68.50226067 6.3553772 -62.80522474 0.76038486 -55.1953125 -3.3046875 C-37.13759276 -11.4033012 -16.86348898 -11.00273543 0 0 Z " fill="#101C5E" transform="translate(1418.0078125,179.4921875)"/>
<path d="M0 0 C7.12775651 6.16008096 10.24558511 12.42035619 11.30859375 21.69140625 C11.72047646 30.46575615 9.41538302 38.3861383 3.9375 45.3125 C-3.92569656 53.51245016 -14.16898443 56.85251354 -25.26953125 57.3359375 C-39.40101773 57.56547168 -51.8262287 56.62185862 -63 47 C-70.54628104 39.02344854 -72.6221043 31.26975968 -72.34375 20.40234375 C-71.85626769 15.57737679 -70.61896594 12.0582175 -68 8 C-67.56042969 7.31421875 -67.12085938 6.6284375 -66.66796875 5.921875 C-61.07378533 -1.49926959 -50.4393308 -7.024861 -41.3046875 -8.7890625 C-26.46145089 -10.14759602 -12.54384271 -8.81147233 0 0 Z M-52.7578125 15.09765625 C-55.39117884 19.13051603 -55.56731111 23.33636897 -55 28 C-53.29377103 34.16778716 -49.82698648 37.57024219 -44.41796875 40.80859375 C-37.17530717 44.37727191 -29.8516456 44.68959462 -22 43 C-14.91852771 40.57235445 -10.67634644 37.52255014 -7 31 C-5.5382591 26.16210915 -5.3923513 21.75145802 -7.0625 16.9375 C-10.95128886 11.04159431 -15.73628693 7.40261031 -22.5546875 5.47265625 C-34.31558512 3.19938371 -45.10574004 5.56002527 -52.7578125 15.09765625 Z " fill="#101D5F" transform="translate(600,180)"/>
<path d="M0 0 C6.6 0 13.2 0 20 0 C20 16.5 20 33 20 50 C35.84 50 51.68 50 68 50 C68 54.95 68 59.9 68 65 C45.56 65 23.12 65 0 65 C0 43.55 0 22.1 0 0 Z " fill="#142061" transform="translate(386,172)"/>
<path d="M0 0 C23.1 0 46.2 0 70 0 C70 4.29 70 8.58 70 13 C61.75 13 53.5 13 45 13 C45 30.16 45 47.32 45 65 C38.4 65 31.8 65 25 65 C25 47.84 25 30.68 25 13 C16.75 13 8.5 13 0 13 C0 8.71 0 4.42 0 0 Z " fill="#132061" transform="translate(1088,172)"/>
<path d="M0 0 C6.27 0 12.54 0 19 0 C19 21.45 19 42.9 19 65 C12.73 65 6.46 65 0 65 C0 43.55 0 22.1 0 0 Z " fill="#101C5E" transform="translate(1249,172)"/>
<path d="M0 0 C5.94 0 11.88 0 18 0 C18 21.45 18 42.9 18 65 C12.06 65 6.12 65 0 65 C0 43.55 0 22.1 0 0 Z " fill="#142061" transform="translate(843,172)"/>
</svg>
